<?xml version="1.0" standalone="no"?>
<!DOCTYPE svg PUBLIC "-//W3C//DTD SVG 20010904//EN"
 "http://www.w3.org/TR/2001/REC-SVG-20010904/DTD/svg10.dtd">
<svg version="1.0" xmlns="http://www.w3.org/2000/svg"
 width="512.000000pt" height="512.000000pt" viewBox="0 0 512.000000 512.000000"
 preserveAspectRatio="xMidYMid meet">
<metadata>
Created by potrace 1.16, written by Peter Selinger 2001-2019
</metadata>
<g transform="translate(0.000000,512.000000) scale(0.100000,-0.100000)"
fill="#000000" stroke="none">
<path d="M2340 4749 c-418 -43 -843 -218 -1170 -483 -449 -363 -742 -914 -799
-1500 -63 -645 173 -1300 634 -1761 664 -665 1686 -833 2530 -415 439 217 778
556 995 995 418 844 250 1865 -415 2530 -331 331 -763 550 -1225 620 -130 19
-423 27 -550 14z m340 -1027 c25 -12 254 -190 509 -395 418 -335 468 -378 495
-427 l31 -55 3 -609 c3 -677 3 -672 -63 -758 -23 -31 -55 -56 -96 -77 l-62
-31 -937 0 -937 0 -62 31 c-41 21 -73 46 -96 77 -66 86 -66 81 -63 758 l3 609
30 54 c35 63 18 49 579 495 246 196 425 331 450 340 58 22 160 16 216 -12z"/>
<path d="M2118 3122 l-438 -347 0 -562 0 -563 880 0 880 0 0 563 0 562 -435
345 c-239 190 -438 346 -442 347 -4 2 -205 -154 -445 -345z m535 -618 c65 -22
139 -91 167 -156 61 -142 2 -293 -143 -370 -59 -32 -175 -32 -234 0 -189 100
-224 329 -71 467 80 72 181 93 281 59z"/>
</g>
</svg>
